<svg width="200" height="200" viewBox="0 0 200 200" fill="none" xmlns="http://www.w3.org/2000/svg">
<path d="M0 20C0 8.95431 8.95431 0 20 0H180C191.046 0 200 8.95431 200 20V180C200 191.046 191.046 200 180 200H20C8.95431 200 0 191.046 0 180V20Z" fill="#40FF00"/>
<path d="M47.5 169V34H112.333C126 34 136.778 37.2222 144.667 43.6667C152.556 50.1111 156.5 59.2222 156.5 71C156.5 77.1111 155.111 82.6111 152.333 87.5C149.667 92.2778 145.5 96.2222 139.833 99.3333V100C145.167 100 149.278 101.444 152.167 104.333C155.056 107.111 156.5 111.111 156.5 116.333V169H137.5V113.667H66.6667V169H47.5ZM66.6667 97.8333H110.5C119.056 97.8333 125.722 95.7778 130.5 91.6667C135.278 87.4444 137.667 81.5555 137.667 74C137.667 66.3333 135.278 60.4444 130.5 56.3333C125.722 52.2222 119.056 50.1667 110.5 50.1667H66.6667V97.8333Z" fill="black"/>
</svg>
